<svg width="9" height="6" viewBox="0 0 9 6" fill="none" xmlns="http://www.w3.org/2000/svg">
<path d="M3.90459 5.20744L0.483477 1.78633C0.401393 1.70424 0.360352 1.60457 0.360352 1.48731C0.360352 1.37005 0.401393 1.27037 0.483477 1.18829L0.88803 0.792531C0.970113 0.710447 1.06832 0.669405 1.18265 0.669405C1.29698 0.669405 1.39812 0.710447 1.48607 0.792531L4.20361 3.50128L6.92116 0.792531C7.0091 0.710447 7.11024 0.669405 7.22457 0.669405C7.3389 0.669405 7.43711 0.710447 7.51919 0.792531L7.92374 1.18829C8.00583 1.27037 8.04687 1.37005 8.04687 1.48731C8.04687 1.60457 8.00583 1.70424 7.92374 1.78633L4.50263 5.20744C4.42055 5.28952 4.32087 5.33057 4.20361 5.33057C4.08635 5.33057 3.98668 5.28952 3.90459 5.20744Z" fill="#1F1E17"/>
</svg>
