<svg width="90" height="66" viewBox="0 0 90 66" fill="none" xmlns="http://www.w3.org/2000/svg">
<g opacity="0.3">
<rect x="1" y="1" width="64" height="64" rx="32" stroke="white" stroke-width="2"/>
<g clip-path="url(#clip0_4138_1505)">
<path d="M86.2562 63.4609H13.7308L25.7185 63.3242C26.4035 63.3171 26.746 63.3081 26.746 63.2974C26.746 63.2866 26.4035 63.2773 25.7185 63.2695C25.0905 63.2617 24.3056 63.2578 23.3637 63.2578C22.4219 63.2578 21.6084 63.2617 20.9234 63.2695L3.02751 63.4727C2.3425 63.4798 2 63.4889 2 63.5C2 63.5111 2.3425 63.5202 3.02751 63.5273L20.9234 63.7305C21.6084 63.7383 22.4219 63.7422 23.3637 63.7422C24.3056 63.7422 25.0905 63.7383 25.7185 63.7305C26.4035 63.7227 26.746 63.7134 26.746 63.7026C26.746 63.6919 26.4035 63.6829 25.7185 63.6758L13.7308 63.5391H86.2562C87.2266 63.5391 88.0401 63.5353 88.6965 63.5278C89.353 63.5203 89.6812 63.5111 89.6812 63.5C89.6812 63.4889 89.353 63.4797 88.6965 63.4722C88.0401 63.4647 87.2266 63.4609 86.2562 63.4609Z" fill="white"/>
</g>
</g>
<defs>
<clipPath id="clip0_4138_1505">
<rect width="87.6812" height="1" fill="white" transform="matrix(1 0 0 -1 2 64)"/>
</clipPath>
</defs>
</svg>
