<svg width="31" height="29" viewBox="0 0 31 29" fill="none" xmlns="http://www.w3.org/2000/svg">
<g clip-path="url(#clip0_3_4325)">
<path d="M7.32927 20.2969H20.5715C21.3215 20.2969 21.9621 20.0312 22.4933 19.5C23.0246 18.9688 23.2902 18.3281 23.2902 17.5781V12.0234C23.2902 12.0234 23.2902 12.0195 23.2902 12.0117C23.2902 12.0039 23.2902 12 23.2902 12C23.2902 11.9844 23.2902 11.9766 23.2902 11.9766C23.2902 11.9766 23.2902 11.9688 23.2902 11.9531C23.2902 11.9531 23.2902 11.9492 23.2902 11.9414C23.2902 11.9336 23.2902 11.9297 23.2902 11.9297C23.2902 11.9297 23.2863 11.9258 23.2785 11.918C23.2707 11.9102 23.2668 11.8984 23.2668 11.8828C23.2668 11.8828 23.2668 11.8789 23.2668 11.8711C23.2668 11.8633 23.2668 11.8594 23.2668 11.8594C23.2668 11.8594 23.2668 11.8555 23.2668 11.8477C23.2668 11.8398 23.2668 11.8359 23.2668 11.8359C23.2668 11.8203 23.2629 11.8125 23.2551 11.8125C23.2472 11.8125 23.2433 11.8047 23.2433 11.7891C23.2433 11.7891 23.2433 11.7852 23.2433 11.7773C23.2433 11.7695 23.2433 11.7656 23.2433 11.7656C23.2433 11.7656 23.2394 11.7617 23.2316 11.7539C23.2238 11.7461 23.2199 11.7422 23.2199 11.7422C23.2199 11.7266 23.2199 11.7188 23.2199 11.7188C23.2043 11.7031 23.1965 11.6953 23.1965 11.6953C23.1965 11.6953 23.1965 11.6875 23.1965 11.6719C23.1965 11.6719 23.1886 11.6641 23.173 11.6484C23.173 11.6484 23.173 11.6445 23.173 11.6367C23.173 11.6289 23.173 11.625 23.173 11.625C23.1574 11.625 23.1496 11.6211 23.1496 11.6133C23.1496 11.6055 23.1496 11.6016 23.1496 11.6016C23.1496 11.6016 23.1457 11.5977 23.1379 11.5898C23.1301 11.582 23.1261 11.5781 23.1261 11.5781C23.1261 11.5781 23.1222 11.5742 23.1144 11.5664C23.1066 11.5586 23.1027 11.5547 23.1027 11.5547C23.1027 11.5547 23.0988 11.5508 23.091 11.543C23.0832 11.5352 23.0793 11.5312 23.0793 11.5312C23.0793 11.5312 23.0754 11.5273 23.0676 11.5195C23.0597 11.5117 23.0558 11.5078 23.0558 11.5078C23.0558 11.5078 23.0519 11.5039 23.0441 11.4961C23.0363 11.4883 23.0324 11.4844 23.0324 11.4844C23.0324 11.4844 23.0285 11.4805 23.0207 11.4727C23.0129 11.4648 23.009 11.4609 23.009 11.4609C22.9933 11.4609 22.9855 11.4609 22.9855 11.4609C22.9699 11.4609 22.9621 11.457 22.9621 11.4492C22.9621 11.4414 22.9543 11.4375 22.9386 11.4375C22.9386 11.4375 22.9386 11.4336 22.9386 11.4258C22.9386 11.418 22.9308 11.4141 22.9152 11.4141C22.9152 11.4141 22.9113 11.4141 22.9035 11.4141C22.8957 11.4141 22.8918 11.4141 22.8918 11.4141C22.8918 11.3984 22.8879 11.3906 22.8801 11.3906C22.8722 11.3906 22.8683 11.3906 22.8683 11.3906C22.8527 11.3906 22.8449 11.3906 22.8449 11.3906C22.8449 11.3906 22.8371 11.3906 22.8215 11.3906C22.8215 11.375 22.8176 11.3672 22.8097 11.3672C22.8019 11.3672 22.798 11.3672 22.798 11.3672C22.798 11.3672 22.7941 11.3672 22.7863 11.3672C22.7785 11.3672 22.7746 11.3672 22.7746 11.3672C22.7746 11.3672 22.7707 11.3672 22.7629 11.3672C22.7551 11.3672 22.7433 11.3672 22.7277 11.3672C22.7277 11.3672 22.7277 11.3633 22.7277 11.3555C22.7277 11.3477 22.7199 11.3438 22.7043 11.3438L5.94646 9.04688V6.70312C5.94646 6.6875 5.94646 6.67578 5.94646 6.66797C5.94646 6.66016 5.94646 6.64844 5.94646 6.63281C5.94646 6.63281 5.94646 6.625 5.94646 6.60938C5.94646 6.60938 5.94646 6.60547 5.94646 6.59766C5.94646 6.58984 5.94646 6.57812 5.94646 6.5625C5.93084 6.5625 5.92302 6.55859 5.92302 6.55078C5.92302 6.54297 5.92302 6.53906 5.92302 6.53906C5.92302 6.52344 5.92302 6.51562 5.92302 6.51562C5.92302 6.5 5.92302 6.48828 5.92302 6.48047C5.92302 6.47266 5.91521 6.46875 5.89959 6.46875C5.89959 6.46875 5.89959 6.46484 5.89959 6.45703C5.89959 6.44922 5.89959 6.44531 5.89959 6.44531C5.89959 6.42969 5.89959 6.42188 5.89959 6.42188C5.89959 6.42188 5.89177 6.41406 5.87615 6.39844C5.87615 6.39844 5.87615 6.39453 5.87615 6.38672C5.87615 6.37891 5.87615 6.375 5.87615 6.375C5.87615 6.375 5.87224 6.37109 5.86443 6.36328C5.85662 6.35547 5.85271 6.35156 5.85271 6.35156C5.85271 6.35156 5.85271 6.34766 5.85271 6.33984C5.85271 6.33203 5.8449 6.32812 5.82927 6.32812C5.82927 6.32812 5.82927 6.32422 5.82927 6.31641C5.82927 6.30859 5.82927 6.30469 5.82927 6.30469C5.82927 6.30469 5.82537 6.30078 5.81756 6.29297C5.80974 6.28516 5.80584 6.28125 5.80584 6.28125C5.80584 6.28125 5.80193 6.27734 5.79412 6.26953C5.7863 6.26172 5.7824 6.25781 5.7824 6.25781C5.7824 6.25781 5.77849 6.25391 5.77068 6.24609C5.76287 6.23828 5.75896 6.23438 5.75896 6.23438C5.75896 6.23438 5.75896 6.23047 5.75896 6.22266C5.75896 6.21484 5.75115 6.21094 5.73552 6.21094C5.73552 6.21094 5.73162 6.20703 5.72381 6.19922C5.71599 6.19141 5.71209 6.1875 5.71209 6.1875C5.71209 6.1875 5.70818 6.18359 5.70037 6.17578C5.69255 6.16797 5.68865 6.16406 5.68865 6.16406C5.68865 6.16406 5.68474 6.16406 5.67693 6.16406C5.66912 6.16406 5.66521 6.15625 5.66521 6.14062C5.64959 6.14062 5.63787 6.13672 5.63006 6.12891C5.62224 6.12109 5.61834 6.11719 5.61834 6.11719C5.60271 6.10156 5.58709 6.09375 5.57146 6.09375C5.55584 6.09375 5.54802 6.08594 5.54802 6.07031L1.91521 4.54688C1.74334 4.48438 1.57146 4.48828 1.39959 4.55859C1.22771 4.62891 1.10271 4.74219 1.02459 4.89844C0.962086 5.07031 0.965993 5.24219 1.03631 5.41406C1.10662 5.58594 1.22771 5.71094 1.39959 5.78906L4.61052 7.14844V21.7266C4.61052 22.4141 4.84099 23.0156 5.30193 23.5312C5.76287 24.0469 6.32146 24.3438 6.97771 24.4219C6.86834 24.625 6.77849 24.8438 6.70818 25.0781C6.63787 25.3125 6.60271 25.5547 6.60271 25.8047C6.60271 26.5547 6.86443 27.1914 7.38787 27.7148C7.91131 28.2383 8.54802 28.5 9.29802 28.5C10.0324 28.5 10.6613 28.2383 11.1847 27.7148C11.7082 27.1914 11.9699 26.5547 11.9699 25.8047C11.9699 25.5703 11.9386 25.3359 11.8761 25.1016C11.8136 24.8672 11.7277 24.6484 11.6183 24.4453H17.5949C17.4855 24.6484 17.3957 24.8672 17.3254 25.1016C17.2551 25.3359 17.2199 25.5703 17.2199 25.8047C17.2199 26.5547 17.4855 27.1914 18.0168 27.7148C18.548 28.2383 19.1808 28.5 19.9152 28.5C20.6496 28.5 21.2824 28.2383 21.8136 27.7148C22.3449 27.1914 22.6105 26.5547 22.6105 25.8047C22.6105 25.0703 22.3449 24.4414 21.8136 23.918C21.2824 23.3945 20.6496 23.1328 19.9152 23.1328H7.32927C6.95427 23.1328 6.63006 22.9961 6.35662 22.7227C6.08318 22.4492 5.94646 22.1172 5.94646 21.7266V19.9219C6.14959 20.0469 6.36834 20.1406 6.60271 20.2031C6.83709 20.2656 7.07927 20.2969 7.32927 20.2969ZM10.6574 25.8047C10.6574 26.1797 10.5246 26.5 10.259 26.7656C9.99334 27.0312 9.67302 27.1641 9.29802 27.1641C8.92302 27.1641 8.60271 27.0312 8.33709 26.7656C8.07146 26.5 7.93865 26.1797 7.93865 25.8047C7.93865 25.4297 8.07146 25.1094 8.33709 24.8438C8.60271 24.5781 8.92302 24.4453 9.29802 24.4453C9.67302 24.4453 9.99334 24.5781 10.259 24.8438C10.5246 25.1094 10.6574 25.4297 10.6574 25.8047ZM21.2746 25.8047C21.2746 26.1797 21.1418 26.5 20.8761 26.7656C20.6105 27.0312 20.2902 27.1641 19.9152 27.1641C19.5402 27.1641 19.2199 27.0312 18.9543 26.7656C18.6886 26.5 18.5558 26.1797 18.5558 25.8047C18.5558 25.4297 18.6886 25.1094 18.9543 24.8438C19.2199 24.5781 19.5402 24.4453 19.9152 24.4453C20.2902 24.4453 20.6105 24.5781 20.8761 24.8438C21.1418 25.1094 21.2746 25.4297 21.2746 25.8047ZM20.5715 18.9609H7.32927C6.95427 18.9609 6.63006 18.8281 6.35662 18.5625C6.08318 18.2969 5.94646 17.9688 5.94646 17.5781V10.3828L21.9543 12.5859V17.5781C21.9543 17.9688 21.8176 18.2969 21.5441 18.5625C21.2707 18.8281 20.9465 18.9609 20.5715 18.9609Z" fill="#1F1E17"/>
</g>
<rect x="14.9805" y="0.5" width="16" height="16" rx="8" fill="#4BAF47"/>
<path d="M23.1581 12.165C22.6191 12.165 22.1425 12.0477 21.7281 11.813C21.3138 11.5747 20.9875 11.2483 20.7491 10.834C20.5145 10.4197 20.3971 9.943 20.3971 9.404V6.676C20.3971 6.137 20.5145 5.66033 20.7491 5.246C20.9875 4.83167 21.3138 4.50717 21.7281 4.2725C22.1425 4.03417 22.6191 3.915 23.1581 3.915C23.6971 3.915 24.1738 4.03417 24.5881 4.2725C25.0025 4.50717 25.327 4.83167 25.5616 5.246C25.8 5.66033 25.9191 6.137 25.9191 6.676V9.404C25.9191 9.943 25.8 10.4197 25.5616 10.834C25.327 11.2483 25.0025 11.5747 24.5881 11.813C24.1738 12.0477 23.6971 12.165 23.1581 12.165ZM23.1581 11.065C23.4515 11.065 23.7173 10.9953 23.9556 10.856C24.1976 10.713 24.3901 10.5223 24.5331 10.284C24.6761 10.042 24.7476 9.7725 24.7476 9.4755V6.5935C24.7476 6.30017 24.6761 6.03433 24.5331 5.796C24.3901 5.554 24.1976 5.36333 23.9556 5.224C23.7173 5.081 23.4515 5.0095 23.1581 5.0095C22.8648 5.0095 22.5971 5.081 22.3551 5.224C22.1168 5.36333 21.9261 5.554 21.7831 5.796C21.6401 6.03433 21.5686 6.30017 21.5686 6.5935V9.4755C21.5686 9.7725 21.6401 10.042 21.7831 10.284C21.9261 10.5223 22.1168 10.713 22.3551 10.856C22.5971 10.9953 22.8648 11.065 23.1581 11.065Z" fill="white"/>
<defs>
<clipPath id="clip0_3_4325">
<rect width="24" height="24" fill="white" transform="matrix(1 0 0 -1 0.980469 28.5)"/>
</clipPath>
</defs>
</svg>
