<svg width="15" height="12" viewBox="0 0 15 12" fill="none" xmlns="http://www.w3.org/2000/svg">
<path d="M14.6201 4.22266C14.6657 4.17708 14.7204 4.17025 14.7842 4.20215C14.848 4.23405 14.8799 4.2819 14.8799 4.3457V9.9375C14.8799 10.3021 14.7523 10.612 14.4971 10.8672C14.2419 11.1224 13.932 11.25 13.5674 11.25H2.19238C1.8278 11.25 1.5179 11.1224 1.2627 10.8672C1.00749 10.612 0.879883 10.3021 0.879883 9.9375V4.3457C0.879883 4.2819 0.909505 4.23405 0.96875 4.20215C1.02799 4.17025 1.08496 4.17708 1.13965 4.22266C1.44954 4.45964 1.88249 4.7832 2.43848 5.19336C2.99447 5.60352 3.96973 6.31445 5.36426 7.32617C5.64681 7.53581 6.01595 7.80697 6.47168 8.13965C6.92741 8.47233 7.39681 8.63411 7.87988 8.625C8.37207 8.63411 8.84603 8.47005 9.30176 8.13281C9.75749 7.79557 10.1266 7.52669 10.4092 7.32617C11.8037 6.31445 12.7767 5.60352 13.3281 5.19336C13.8796 4.7832 14.3102 4.45964 14.6201 4.22266ZM7.87988 7.75C7.56087 7.75911 7.20312 7.61328 6.80664 7.3125C6.41016 7.01172 6.09798 6.7793 5.87012 6.61523C4.05632 5.30273 2.91699 4.47103 2.45215 4.12012C1.9873 3.76921 1.54525 3.42969 1.12598 3.10156C1.05306 3.03776 0.993815 2.96029 0.948242 2.86914C0.902669 2.77799 0.879883 2.68229 0.879883 2.58203V2.0625C0.879883 1.69792 1.00749 1.38802 1.2627 1.13281C1.5179 0.877604 1.8278 0.75 2.19238 0.75H13.5674C13.932 0.75 14.2419 0.877604 14.4971 1.13281C14.7523 1.38802 14.8799 1.69792 14.8799 2.0625V2.58203C14.8799 2.68229 14.8571 2.77799 14.8115 2.86914C14.766 2.96029 14.7067 3.03776 14.6338 3.10156C14.2145 3.42969 13.7725 3.76921 13.3076 4.12012C12.8428 4.47103 11.7035 5.30273 9.88965 6.61523C9.66178 6.7793 9.34961 7.01172 8.95312 7.3125C8.55664 7.61328 8.19889 7.75911 7.87988 7.75Z" fill="white"/>
</svg>
