<svg width="15" height="12" viewBox="0 0 15 12" fill="none" xmlns="http://www.w3.org/2000/svg">
<path d="M13.0645 3.02258C13.0645 3.08638 13.0645 3.15019 13.0645 3.21399C13.0645 3.27779 13.0645 3.34159 13.0645 3.4054C13.0645 4.35331 12.8867 5.31034 12.5312 6.27649C12.1758 7.24264 11.654 8.11764 10.9658 8.90149C10.2777 9.68534 9.42318 10.3279 8.40234 10.8292C7.39062 11.3214 6.22396 11.5675 4.90234 11.5675C4.5013 11.5675 4.10482 11.5402 3.71289 11.4855C3.32096 11.4217 2.94043 11.3351 2.57129 11.2257C2.20215 11.1163 1.8444 10.9842 1.49805 10.8292C1.15169 10.6652 0.81901 10.4829 0.5 10.2823C0.61849 10.2915 0.734701 10.2983 0.848633 10.3029C0.962565 10.3074 1.07878 10.3097 1.19727 10.3097C1.86263 10.3097 2.49837 10.2026 3.10449 9.9884C3.71061 9.77421 4.25977 9.47571 4.75195 9.0929C4.12305 9.07467 3.56478 8.8787 3.07715 8.505C2.58952 8.13131 2.25456 7.66191 2.07227 7.0968C2.16341 7.10592 2.25228 7.11503 2.33887 7.12415C2.42546 7.13326 2.51888 7.13782 2.61914 7.13782C2.74674 7.13782 2.87435 7.13098 3.00195 7.11731C3.12956 7.10364 3.2526 7.07857 3.37109 7.04211C2.71484 6.9054 2.16797 6.57727 1.73047 6.05774C1.29297 5.53821 1.07422 4.92753 1.07422 4.22571V4.19836C1.26562 4.29862 1.4707 4.38066 1.68945 4.44446C1.9082 4.50826 2.13151 4.54472 2.35938 4.55383C1.97656 4.29862 1.66895 3.96139 1.43652 3.54211C1.2041 3.12284 1.08789 2.66256 1.08789 2.16125C1.08789 1.89693 1.12207 1.644 1.19043 1.40247C1.25879 1.16093 1.35221 0.935344 1.4707 0.725708C1.82617 1.15409 2.22266 1.54602 2.66016 1.90149C3.09766 2.25696 3.56706 2.56458 4.06836 2.82434C4.56966 3.08411 5.10286 3.29146 5.66797 3.44641C6.22396 3.60136 6.79818 3.6925 7.39062 3.71985C7.3724 3.61047 7.35645 3.5011 7.34277 3.39172C7.3291 3.28235 7.32227 3.17297 7.32227 3.0636C7.32227 2.67167 7.39518 2.29797 7.54102 1.9425C7.69596 1.59615 7.90332 1.29309 8.16309 1.03333C8.42285 0.77356 8.72591 0.57076 9.07227 0.424927C9.41862 0.269979 9.79232 0.192505 10.1934 0.192505C10.6035 0.192505 10.9886 0.274536 11.3486 0.438599C11.7087 0.602661 12.0208 0.821411 12.2852 1.09485C12.6133 1.04016 12.93 0.953572 13.2354 0.835083C13.5407 0.716594 13.8301 0.575317 14.1035 0.411255C14.0033 0.73938 13.8438 1.04016 13.625 1.3136C13.4062 1.58704 13.1465 1.81034 12.8457 1.98352C13.1374 1.95618 13.4222 1.90377 13.7002 1.82629C13.9782 1.74882 14.2448 1.6554 14.5 1.54602C14.3086 1.82857 14.0898 2.09517 13.8438 2.34583C13.5977 2.59648 13.3379 2.82206 13.0645 3.02258Z" fill="white"/>
</svg>
